# xmcd
#
# Track frame offsets: 
#        150
#        10297
#        47187
#        100615
#        108712
#        125145
#        147070
#        163070
#        174132
#
# Disc length: 2655 seconds
#
# Revision: 2
# Processed by: cddbd v1.5.2PL0 Copyright (c) Steve Scherf et al.
# Submitted via: ExactAudioCopy v0.99pb4
#
DISCID=740a5d09
DTITLE=Set Fire To Flames - Mouths Trapped In Static [CD2 of 2)
DYEAR=2003
DGENRE=Instrumental Rock
TTITLE0=Your Guts Are Like Mine
TTITLE1=F-kt Perkusiv - Something About Bad Drugs, Schizophrenics, And
TTITLE1=Grain Silos...
TTITLE2=Sleep Maps
TTITLE3=Something About Eva Mattes Un The Halo Of Exploding Street Lam
TTITLE3=ps...
TTITLE4=Buzz Of Barn Flies Like Faulty Electronics
TTITLE5=And The Birds Are About To Bust Their Guts With Singing
TTITLE6=Rites Of Spring Reverb
TTITLE7=Mouth Trapped In Static
TTITLE8=This Thing Between Us Is A Rickety Bridge Of Impossible Crossi
TTITLE8=ng - Bonfires For Nobody...
EXTD=YEAR: 2003
EXTT0=
EXTT1=
EXTT2=
EXTT3=
EXTT4=
EXTT5=
EXTT6=
EXTT7=
EXTT8=
PLAYORDER=
